<?xml version="1.0" encoding="UTF-8"?>
<svg version="1.1" xmlns="http://www.w3.org/2000/svg" width="150" height="150">
<path d="M0 0 C1.69749057 1.35360557 1.69749057 1.35360557 4.45043945 2.77124023 C8.34357967 1.95819113 11.26903427 -0.36287202 14.51293945 -2.60375977 C26.28707229 -10.25136973 39.91289667 -12.92273827 53.75512695 -10.69750977 C63.70588303 -8.41454328 70.68007212 -3.75512343 76.45043945 4.77124023 C79.41180805 11.20935148 79.96452692 17.38354611 79.88793945 24.39624023 C79.88181641 25.3561084 79.87569336 26.31597656 79.86938477 27.30493164 C79.62260205 38.65503814 77.12261969 48.84492482 71.45043945 58.77124023 C70.79043945 58.77124023 70.13043945 58.77124023 69.45043945 58.77124023 C69.52262695 57.79026367 69.59481445 56.80928711 69.66918945 55.79858398 C72.36579694 30.95769174 72.36579694 30.95769174 63.45043945 8.77124023 C62.64606445 7.68842773 62.64606445 7.68842773 61.82543945 6.58374023 C56.45468941 2.48500994 49.07427872 0.985361 42.45043945 1.77124023 C27.73835343 5.10227858 17.03498859 12.41588409 6.45043945 22.77124023 C2.7803172 20.70475932 -0.22080878 18.37871228 -3.36206055 15.58374023 C-11.96558909 8.41217688 -23.70164831 1.28272571 -35.14331055 1.50561523 C-40.30633526 2.07555952 -44.01625151 3.92460283 -47.34643555 7.93530273 C-51.67284012 14.26009419 -53.22258862 19.13112528 -52.54956055 26.77124023 C-49.64417948 39.6977238 -39.62592716 47.77423402 -29.73706055 55.58374023 C0.29527442 79.41374515 0.29527442 79.41374515 4.1027832 95.53295898 C4.38793945 98.02124023 4.38793945 98.02124023 4.45043945 101.77124023 C3.79043945 101.77124023 3.13043945 101.77124023 2.45043945 101.77124023 C1.36452332 100.18899125 0.35802485 98.55203612 -0.61206055 96.89624023 C-9.26106683 82.96866517 -21.68403877 72.57496476 -34.98706055 63.27905273 C-62.92132685 43.73423512 -62.92132685 43.73423512 -66.98706055 26.77124023 C-68.5644518 16.24422912 -66.39986039 7.67387043 -60.54956055 -1.22875977 C-44.34941748 -20.15161596 -17.2260799 -13.79808217 0 0 Z " fill="#35B3FE" transform="translate(68.549560546875,27.228759765625)"/>
<path d="M0 0 C0.99 0.33 1.98 0.66 3 1 C7.17718207 18.4835282 1.86621962 34.94549109 -6.8125 50.0625 C-13.96640462 61.58520133 -24.03479657 74.20221699 -36 81 C-36.99 81 -37.98 81 -39 81 C-38.94779297 80.14341797 -38.94779297 80.14341797 -38.89453125 79.26953125 C-38.33892564 62.62782049 -45.00658166 47.32677849 -56 35 C-56.56203125 34.46761719 -57.1240625 33.93523437 -57.703125 33.38671875 C-59 32 -59 32 -59 30 C-59.87205078 29.61521484 -59.87205078 29.61521484 -60.76171875 29.22265625 C-63.20406142 27.88853189 -64.82365447 26.37927227 -66.8125 24.4375 C-71.97428184 19.72381942 -77.72033026 16.36011308 -83.7421875 12.8828125 C-85.8676063 11.65445295 -87.95744409 10.36170394 -90 9 C-90 8.34 -90 7.68 -90 7 C-70.72603047 10.05936024 -52.74209976 18.24138276 -38 31 C-37.17371094 31.6290625 -36.34742188 32.258125 -35.49609375 32.90625 C-32.82651982 35.14551702 -30.82170631 37.50085289 -28.6875 40.25 C-27.99011719 41.14203125 -27.29273438 42.0340625 -26.57421875 42.953125 C-25.79498047 43.96632813 -25.79498047 43.96632813 -25 45 C-21.12558537 41.34619261 -18.06266531 37.56025304 -15.125 33.125 C-14.69372803 32.47442627 -14.26245605 31.82385254 -13.81811523 31.15356445 C-7.58841878 21.51911843 -2.75927095 11.16847765 0 0 Z " fill="#293381" transform="translate(121,62)"/>
<path d="M0 0 C3.13590816 1.45553473 5.14408489 3.07078459 7 6 C7.874914 9.83616136 7.8587987 13.16169562 7 17 C4.5625 20.125 4.5625 20.125 2 22 C1.67 22.33 1.34 22.66 1 23 C-3.76514923 23.6281741 -8.50553914 23.94195271 -12.5625 21.0625 C-15.73131347 17.08117025 -16.3815235 14.0307866 -16 9 C-14.79416827 5.38250482 -13.6930515 3.59404414 -10.8125 1.125 C-7.08181719 -0.36727313 -3.90510969 -0.86943952 0 0 Z " fill="#293381" transform="translate(99,67)"/>
</svg>
